# xmcd
#
# Track frame offsets: 
#        150
#        17989
#        34438
#        50810
#        65339
#        80661
#        98783
#        116488
#        132762
#        148634
#        164126
#        185788
#        201793
#        217469
#        232479
#
# Disc length: 3601 seconds
#
# Revision: 0
# Processed by: cddbd v1.5.2PL0 Copyright (c) Steve Scherf et al.
# Submitted via: ExactAudioCopy v0.95a5
#
DISCID=f80e0f0f
DTITLE=Culcha Candela - Union Verdadera
DYEAR=2005
DGENRE=Hip-Hop
TTITLE0=Union Verdadera
TTITLE1=In Da City
TTITLE2=Augen Auf
TTITLE3=Solarenergie
TTITLE4=Chant As One
TTITLE5=Colombia
TTITLE6=No Es Igual
TTITLE7=One Distination (Wir wollen's schneller)
TTITLE8=Homie
TTITLE9=Tres Tristes Tigres
TTITLE10=Taumhaft
TTITLE11=Shotgun Lady
TTITLE12=Musica
TTITLE13=This Is A Warning
TTITLE14=Back To Our Roos - (Hidden Track)
EXTD=
EXTT0=
EXTT1=
EXTT2=
EXTT3=
EXTT4=
EXTT5=
EXTT6=
EXTT7=
EXTT8=
EXTT9=
EXTT10=
EXTT11=
EXTT12=
EXTT13=
EXTT14=
PLAYORDER=
